<svg width="310" height="297" viewBox="0 0 310 297" fill="none" xmlns="http://www.w3.org/2000/svg">
<rect x="2.0835" y="2.07812" width="285.959" height="286.117" rx="5" stroke="#DC704E" stroke-width="4"/>
<rect x="281.065" y="148.982" width="13.1686" height="112.765" rx="5" stroke="#DC704E" stroke-width="4"/>
<rect x="-1.99932" y="2.0006" width="12.1675" height="208.68" rx="5" transform="matrix(0.000340318 1 -1 0.000301786 243.55 284.367)" stroke="#DC704E" stroke-width="4"/>
<path d="M307.619 113.251C307.619 122.724 299.23 130.613 288.612 130.613C277.994 130.613 269.605 122.724 269.605 113.251C269.605 103.778 277.994 95.8887 288.612 95.8887C299.23 95.8887 307.619 103.778 307.619 113.251Z" stroke="#DC704E" stroke-width="3"/>
<path d="M307.619 94.3884C307.619 103.862 299.23 111.751 288.612 111.751C277.994 111.751 269.605 103.862 269.605 94.3884C269.605 84.9152 277.994 77.0264 288.612 77.0264C299.23 77.0264 307.619 84.9152 307.619 94.3884Z" stroke="#DC704E" stroke-width="3"/>
<path d="M307.619 75.5261C307.619 84.9993 299.23 92.8882 288.612 92.8882C277.994 92.8882 269.605 84.9993 269.605 75.5261C269.605 66.0529 277.994 58.1641 288.612 58.1641C299.23 58.1641 307.619 66.0529 307.619 75.5261Z" stroke="#DC704E" stroke-width="3"/>
<path d="M307.619 56.6648C307.619 66.138 299.23 74.0269 288.612 74.0269C277.994 74.0269 269.605 66.138 269.605 56.6648C269.605 47.1916 277.994 39.3027 288.612 39.3027C299.23 39.3027 307.619 47.1916 307.619 56.6648Z" stroke="#DC704E" stroke-width="3"/>
<path d="M307.619 37.8025C307.619 47.2757 299.23 55.1646 288.612 55.1646C277.994 55.1646 269.605 47.2757 269.605 37.8025C269.605 28.3293 277.994 20.4404 288.612 20.4404C299.23 20.4404 307.619 28.3293 307.619 37.8025Z" stroke="#DC704E" stroke-width="3"/>
<path d="M307.619 18.9402C307.619 28.4134 299.23 36.3023 288.612 36.3023C277.994 36.3023 269.605 28.4134 269.605 18.9402C269.605 9.467 277.994 1.57812 288.612 1.57812C299.23 1.57812 307.619 9.467 307.619 18.9402Z" stroke="#DC704E" stroke-width="3"/>
</svg>
