<svg width="313" height="297" viewBox="0 0 313 297" fill="none" xmlns="http://www.w3.org/2000/svg">
<rect x="-2" y="2" width="13.3402" height="112.765" rx="5" transform="matrix(-1 0 0 1 25.8633 150.92)" stroke="#DC704E" stroke-width="4"/>
<rect x="1.99931" y="2.0006" width="12.1675" height="210.806" rx="5" transform="matrix(-0.000343719 1 1 0.000298799 64.5639 280.26)" stroke="#DC704E" stroke-width="4"/>
<rect x="-2" y="2" width="288.857" height="286.117" rx="5" transform="matrix(-1 0 0 1 308.124 0.0234375)" stroke="#DC704E" stroke-width="4"/>
<path d="M1.49995 113.196C1.49995 122.656 9.96628 130.558 20.7119 130.558C31.4575 130.558 39.9238 122.656 39.9238 113.196C39.9238 103.736 31.4575 95.834 20.7119 95.834C9.96628 95.834 1.49995 103.736 1.49995 113.196Z" stroke="#DC704E" stroke-width="3"/>
<path d="M1.49995 94.3338C1.49995 103.794 9.96628 111.696 20.7119 111.696C31.4575 111.696 39.9238 103.794 39.9238 94.3338C39.9238 84.8739 31.4575 76.9717 20.7119 76.9717C9.96628 76.9717 1.49995 84.8739 1.49995 94.3338Z" stroke="#DC704E" stroke-width="3"/>
<path d="M1.49995 75.4715C1.49995 84.9313 9.96628 92.8335 20.7119 92.8335C31.4575 92.8335 39.9238 84.9313 39.9238 75.4715C39.9238 66.0116 31.4575 58.1094 20.7119 58.1094C9.96628 58.1094 1.49995 66.0116 1.49995 75.4715Z" stroke="#DC704E" stroke-width="3"/>
<path d="M1.49995 56.6101C1.49995 66.0699 9.96628 73.9722 20.7119 73.9722C31.4575 73.9722 39.9238 66.0699 39.9238 56.6101C39.9238 47.1503 31.4575 39.248 20.7119 39.248C9.96628 39.248 1.49995 47.1503 1.49995 56.6101Z" stroke="#DC704E" stroke-width="3"/>
<path d="M1.49995 37.7478C1.49995 47.2076 9.96628 55.1099 20.7119 55.1099C31.4575 55.1099 39.9238 47.2076 39.9238 37.7478C39.9238 28.288 31.4575 20.3857 20.7119 20.3857C9.96628 20.3857 1.49995 28.288 1.49995 37.7478Z" stroke="#DC704E" stroke-width="3"/>
<path d="M1.49995 18.8855C1.49995 28.3453 9.96628 36.2476 20.7119 36.2476C31.4575 36.2476 39.9238 28.3453 39.9238 18.8855C39.9238 9.42569 31.4575 1.52344 20.7119 1.52344C9.96628 1.52344 1.49995 9.42569 1.49995 18.8855Z" stroke="#DC704E" stroke-width="3"/>
</svg>
